<?xml version="1.0" standalone="no"?>
<!DOCTYPE svg PUBLIC "-//W3C//DTD SVG 20010904//EN"
 "http://www.w3.org/TR/2001/REC-SVG-20010904/DTD/svg10.dtd">
<svg version="1.0" xmlns="http://www.w3.org/2000/svg"
 width="1280.000000pt" height="1280.000000pt" viewBox="0 0 1280.000000 1280.000000"
 preserveAspectRatio="xMidYMid meet">
<metadata>
Created by potrace 1.14, written by Peter Selinger 2001-2017
</metadata>
<g transform="translate(0.000000,1280.000000) scale(0.100000,-0.100000)"
fill="#000000" stroke="none">
<path d="M3665 12576 c-76 -33 -75 -141 1 -191 78 -51 179 18 154 106 -10 35
-62 89 -86 89 -7 0 -18 2 -26 5 -7 2 -26 -2 -43 -9z"/>
<path d="M7990 12518 c-13 -5 -34 -21 -47 -36 -14 -15 -37 -40 -52 -57 -39
-41 -65 -101 -66 -150 -1 -23 -6 -41 -13 -41 -7 -1 -19 -2 -27 -3 -8 0 -30
-16 -48 -33 l-34 -33 -132 0 c-145 0 -184 -10 -204 -52 -5 -13 -16 -23 -23
-23 -7 0 -24 -14 -38 -32 -18 -23 -34 -33 -58 -34 -18 -1 -36 -2 -40 -3 -3 -1
-21 -16 -40 -34 -33 -32 -35 -32 -126 -32 -99 1 -139 -11 -170 -49 -15 -19
-27 -21 -117 -20 -55 0 -107 -3 -116 -8 -10 -4 -47 -37 -83 -72 -36 -36 -66
-60 -66 -54 0 17 -112 120 -140 127 -14 4 -67 7 -118 7 -50 -1 -92 2 -92 6 0
14 -51 58 -68 59 -9 1 -138 2 -286 3 -285 2 -299 0 -336 -46 -15 -18 -29 -23
-72 -24 -91 -2 -96 -3 -134 -39 -25 -24 -44 -34 -60 -31 -25 5 -57 -16 -128
-86 l-48 -47 -65 65 c-36 35 -68 64 -72 65 -3 1 -20 2 -38 3 -20 1 -41 11 -57
29 -29 31 -65 47 -92 42 -11 -2 -24 -4 -31 -4 -17 -1 -63 -46 -63 -60 0 -7
-11 0 -24 16 -45 54 -117 62 -213 25 -41 -16 -78 -20 -177 -21 -69 -1 -126 0
-126 2 0 3 6 17 14 31 16 32 7 87 -20 117 -9 10 -42 30 -73 44 -54 25 -105 28
-156 9 -9 -4 -15 0 -15 10 0 24 -54 73 -89 81 -17 3 -44 4 -61 0 -17 -4 -30
-3 -30 2 0 4 -10 19 -23 33 -12 14 -30 37 -40 52 -18 29 -68 60 -90 57 -19 -3
-89 12 -117 26 -14 6 -38 10 -55 8 -82 -9 -134 -9 -170 2 -40 11 -111 14 -130
4 -5 -3 -34 -5 -63 -4 -48 1 -58 -3 -90 -33 -19 -19 -54 -40 -77 -46 -58 -18
-92 -51 -111 -108 -11 -33 -35 -69 -75 -111 -116 -120 -129 -135 -129 -142 0
-4 -11 -18 -24 -30 -60 -55 -60 -59 -62 -440 0 -192 3 -363 8 -380 4 -16 20
-41 35 -55 25 -22 28 -32 27 -80 -2 -66 7 -92 43 -128 27 -26 28 -32 28 -117
-1 -119 2 -131 38 -167 17 -17 31 -42 32 -57 2 -37 14 -62 45 -91 l26 -25 -1
-250 -1 -250 -34 -53 c-33 -52 -34 -55 -36 -175 -2 -120 -2 -123 -36 -178
l-34 -56 2 -149 c2 -186 -2 -166 37 -205 l32 -34 -3 -255 c-1 -140 -3 -273 -4
-295 -1 -49 28 -197 49 -245 8 -19 19 -44 23 -55 4 -11 15 -36 23 -55 8 -19
27 -67 41 -107 31 -82 56 -104 128 -112 3 -1 -3 -25 -14 -53 -35 -92 -34 -120
5 -201 19 -40 52 -118 72 -172 43 -115 56 -137 90 -155 21 -11 23 -16 12 -29
-11 -14 -10 -14 6 -2 36 28 69 20 73 -19 3 -34 11 -47 58 -94 57 -58 96 -125
96 -165 0 -49 20 -88 51 -101 16 -7 29 -17 29 -21 0 -5 -13 -35 -29 -67 -15
-31 -27 -66 -25 -77 3 -18 -30 -83 -48 -96 -4 -3 -15 -28 -23 -56 -8 -28 -32
-75 -52 -105 -32 -45 -38 -62 -38 -108 -1 -40 -8 -66 -27 -95 -24 -39 -57
-117 -93 -220 -9 -27 -21 -59 -25 -70 -4 -11 -20 -54 -35 -95 -16 -41 -35 -85
-43 -97 -7 -12 -15 -43 -16 -69 -3 -65 -15 -71 -120 -54 -75 12 -90 17 -106
40 -34 48 -69 55 -142 30 -122 -41 -329 -152 -378 -201 -40 -40 -49 -45 -83
-42 -40 4 -101 -22 -128 -53 -36 -43 -85 -137 -140 -269 -56 -135 -61 -142
-128 -205 -100 -93 -105 -108 -107 -320 -1 -142 -5 -190 -22 -255 -12 -44 -23
-93 -26 -110 -10 -53 -13 -68 -46 -195 -17 -69 -38 -147 -47 -175 -34 -110
-114 -346 -153 -455 -23 -63 -44 -124 -47 -135 -3 -11 -9 -24 -13 -30 -4 -5
-11 -46 -14 -90 -4 -44 -8 -88 -9 -98 -1 -10 -18 -35 -38 -56 -38 -40 -50 -75
-54 -151 -3 -54 -57 -176 -108 -242 -73 -96 -106 -147 -161 -254 -50 -98 -120
-271 -133 -332 -6 -26 -10 -29 -46 -36 -33 -6 -79 -37 -108 -74 -21 -27 -25
-29 -65 -31 -65 -3 -111 -124 -74 -194 18 -32 17 -36 -3 -113 -11 -43 -24 -81
-28 -84 -19 -13 -118 -223 -138 -295 -13 -44 -24 -84 -25 -90 0 -5 -10 -23
-22 -40 -24 -34 -54 -102 -72 -160 -7 -22 -26 -83 -42 -135 l-30 -94 0 -333 0
-333 6400 0 6400 0 0 2180 c0 1200 -4 2179 -9 2176 -4 -3 -16 12 -26 32 -23
45 -29 76 -14 67 6 -4 8 -14 5 -22 -3 -8 -1 -11 4 -8 6 3 10 1 10 -4 0 -6 5
-11 11 -11 6 0 1 13 -11 29 -12 18 -16 32 -10 36 7 4 7 12 0 25 -7 14 -6 23 6
34 8 9 11 16 5 16 -16 0 -31 -34 -21 -50 9 -15 4 -30 -9 -30 -4 0 -8 6 -8 13
0 6 -3 23 -7 36 -5 13 -4 21 0 19 5 -3 17 3 27 14 9 10 13 18 8 18 -6 0 -13
-4 -16 -10 -3 -5 -14 -10 -23 -10 -16 1 -16 2 1 14 18 14 24 32 7 21 -5 -3
-10 -1 -10 4 0 6 4 11 9 11 5 0 7 10 4 23 -4 18 -3 19 7 7 8 -12 10 -8 6 17
-3 25 0 33 11 33 13 0 13 -2 2 -17 -13 -15 -12 -15 9 -2 12 8 22 17 22 22 0 4
-4 6 -9 2 -12 -7 -43 24 -36 36 12 18 -16 89 -40 105 -14 9 -25 22 -25 29 0 7
-13 27 -29 45 -26 30 -29 40 -26 89 3 62 -12 110 -47 146 -20 21 -22 34 -23
122 -1 101 -11 133 -48 165 -15 14 -20 32 -22 83 -2 57 -7 73 -35 113 -27 38
-34 58 -36 104 -2 60 -15 91 -48 123 -24 23 -26 32 -30 135 -2 41 -4 83 -5 92
-1 20 -34 58 -213 241 -76 77 -138 144 -138 148 0 17 -89 97 -144 130 -28 16
-73 18 -96 4 -3 -2 -25 10 -49 26 -24 16 -51 29 -60 30 -9 0 -25 2 -37 4 -11
3 -33 1 -50 -4 -24 -7 -35 -3 -64 20 -46 35 -164 83 -190 76 -11 -3 -20 -1
-20 3 0 17 -151 161 -214 205 -24 17 -53 39 -121 93 -33 26 -137 93 -174 112
-50 25 -149 38 -176 22 -40 -22 -168 49 -183 102 -6 17 -17 57 -27 88 -12 43
-27 66 -57 92 -22 20 -44 36 -49 36 -4 0 -11 10 -14 23 -23 79 -71 186 -93
210 -34 36 -109 75 -142 73 -30 -2 -27 -36 -34 499 -2 193 -7 361 -10 375 -4
14 -8 39 -10 55 -5 42 -16 116 -21 145 -9 47 -17 95 -20 115 -1 11 -5 36 -8
55 -4 19 -9 56 -12 81 -3 26 -11 67 -19 93 -8 25 -12 46 -9 46 3 0 0 7 -7 15
-7 8 -10 15 -7 15 3 0 1 15 -4 34 -7 24 -5 43 5 67 13 32 14 105 1 157 -3 12
-7 32 -10 43 -10 46 -29 97 -70 184 -24 50 -46 100 -50 113 -3 12 -17 34 -29
50 -13 15 -29 45 -37 67 -17 47 -156 195 -185 195 -13 0 -26 16 -42 54 -25 57
-83 119 -129 138 -15 6 -55 12 -88 14 -51 2 -62 6 -80 29 -11 14 -79 86 -151
159 -122 124 -131 136 -129 168 2 23 13 45 34 67 17 17 32 41 32 51 1 11 3 25
4 30 1 6 3 14 4 19 0 5 15 23 31 41 17 18 31 37 31 44 1 6 2 218 3 470 2 402
0 465 -14 507 -10 27 -25 57 -36 66 -11 11 -20 33 -20 53 -3 73 -24 131 -58
159 -9 8 -16 20 -16 28 0 29 -41 103 -66 120 -14 9 -41 17 -60 17 -19 1 -34 4
-34 8 0 11 -43 54 -65 65 -11 5 -78 8 -150 6 -192 -5 -290 -5 -386 0 -47 2
-96 0 -109 -5z m1331 -2742 c21 -12 29 -26 30 -47 2 -39 2 -38 28 -88 18 -35
20 -45 9 -52 -10 -7 -9 -9 5 -9 9 0 17 -4 17 -10 0 -21 2 -26 18 -45 16 -19
16 -19 -3 -5 -11 8 -30 25 -42 37 -15 15 -23 19 -26 10 -3 -7 -6 -5 -6 5 -1 9
8 20 20 23 11 4 18 9 16 12 -3 2 -15 -1 -27 -7 -22 -12 -29 -6 -96 72 -20 24
-20 25 -3 36 10 7 26 9 36 6 17 -5 17 -5 0 6 -14 9 -21 9 -32 0 -8 -6 -22 -10
-32 -7 -15 3 -13 6 9 15 20 8 25 16 21 31 -3 12 -8 21 -10 21 -3 0 -3 -9 0
-21 4 -15 2 -19 -9 -15 -8 3 -14 1 -14 -5 0 -6 -5 -7 -10 -4 -7 5 -8 11 -1 18
5 7 8 27 7 45 -1 21 2 32 11 32 7 0 13 5 13 11 0 5 -4 7 -10 4 -11 -7 -14 8
-4 18 4 4 18 -11 32 -32 14 -21 38 -46 53 -55z"/>
<path d="M9306 9756 c6 -15 4 -17 -6 -11 -9 6 -11 4 -5 -4 5 -9 10 -10 18 -2
8 8 7 14 -2 24 -10 10 -11 8 -5 -7z"/>
<path d="M9270 9690 c0 -5 5 -10 10 -10 6 0 10 5 10 10 0 6 -4 10 -10 10 -5 0
-10 -4 -10 -10z"/>
<path d="M9310 9685 c0 -8 4 -15 10 -15 5 0 7 7 4 15 -4 8 -8 15 -10 15 -2 0
-4 -7 -4 -15z"/>
<path d="M9290 9667 c0 -4 9 -16 20 -27 11 -11 20 -15 20 -9 0 5 4 7 10 4 6
-4 7 1 3 11 -5 13 -3 15 7 9 9 -6 11 -4 5 5 -6 10 -10 10 -20 -3 -11 -15 -13
-15 -28 1 -9 9 -17 13 -17 9z"/>
<path d="M9352 9624 c-7 -8 -8 -14 -3 -14 10 0 25 19 20 25 -2 1 -10 -3 -17
-11z"/>
<path d="M163 7461 c-29 -8 -73 -47 -74 -66 -1 -8 -2 -21 -3 -27 -5 -35 40
-98 69 -98 10 0 13 -5 9 -12 -5 -7 -3 -8 7 -2 15 9 20 11 42 13 43 4 80 73 66
124 -7 25 -42 66 -58 68 -3 0 -13 2 -21 3 -8 2 -25 0 -37 -3z"/>
<path d="M2333 7231 c0 -11 5 -18 9 -15 4 3 5 11 1 19 -7 21 -12 19 -10 -4z"/>
<path d="M3055 7171 c-3 -5 -2 -12 3 -15 5 -3 9 1 9 9 0 17 -3 19 -12 6z"/>
<path d="M2977 7139 c7 -7 15 -10 18 -7 3 3 -2 9 -12 12 -14 6 -15 5 -6 -5z"/>
<path d="M3004 7118 c-3 -4 5 -5 17 -3 30 6 36 14 9 12 -12 -1 -24 -5 -26 -9z"/>
<path d="M3046 7098 c3 -5 10 -6 15 -3 13 9 11 12 -6 12 -8 0 -12 -4 -9 -9z"/>
<path d="M3015 7089 c-4 -6 -5 -12 -2 -15 2 -3 7 2 10 11 7 17 1 20 -8 4z"/>
<path d="M3111 6863 c-1 -6 4 -15 11 -19 8 -5 6 -11 -7 -20 -16 -12 -14 -13
11 -10 16 1 34 -1 41 -6 7 -6 14 -4 19 3 4 8 3 9 -4 5 -7 -4 -12 -3 -12 2 0 5
-9 12 -20 15 -14 4 -18 11 -14 24 4 13 3 15 -4 4 -8 -11 -10 -11 -15 0 -3 9
-6 10 -6 2z"/>
<path d="M3211 6834 c0 -11 3 -14 6 -6 3 7 2 16 -1 19 -3 4 -6 -2 -5 -13z"/>
<path d="M3202 6801 c-11 -7 -11 -9 0 -14 9 -3 15 1 15 9 0 8 -1 14 -1 14 -1
0 -7 -4 -14 -9z"/>
<path d="M12776 4622 c-9 -15 0 -46 15 -50 8 -2 10 0 4 5 -15 12 -19 47 -4 37
8 -4 10 -3 5 4 -8 14 -13 15 -20 4z"/>
<path d="M12751 4594 c0 -11 3 -14 6 -6 3 7 2 16 -1 19 -3 4 -6 -2 -5 -13z"/>
<path d="M12770 4516 c0 -20 17 -29 26 -15 5 8 3 9 -6 4 -10 -6 -12 -4 -7 8 3
10 2 17 -3 17 -6 0 -10 -6 -10 -14z"/>
<path d="M12777 4459 c7 -7 15 -10 18 -7 3 3 -2 9 -12 12 -14 6 -15 5 -6 -5z"/>
</g>
</svg>
