<?xml version="1.0" standalone="no"?>
<!DOCTYPE svg PUBLIC "-//W3C//DTD SVG 20010904//EN"
 "http://www.w3.org/TR/2001/REC-SVG-20010904/DTD/svg10.dtd">
<svg version="1.0" xmlns="http://www.w3.org/2000/svg"
 width="791.000000pt" height="791.000000pt" viewBox="0 0 791.000000 791.000000"
 preserveAspectRatio="xMidYMid meet">
<metadata>
Created by potrace 1.14, written by Peter Selinger 2001-2017
</metadata>
<g transform="translate(0.000000,791.000000) scale(0.100000,-0.100000)"
fill="#000000" stroke="none">
<path d="M5051 6650 c-48 -5 -69 -17 -83 -49 -2 -4 -25 -20 -53 -35 -60 -35
-118 -96 -227 -239 -67 -89 -87 -109 -117 -117 -20 -5 -107 -9 -194 -10 -137
0 -162 2 -196 19 -21 11 -60 23 -87 26 -27 4 -69 13 -93 21 -25 8 -65 17 -90
20 -25 2 -54 7 -63 10 -18 5 -51 10 -173 24 -44 5 -96 11 -115 14 -124 16
-181 18 -411 18 -250 0 -339 -6 -339 -22 0 -7 -65 -21 -120 -25 -14 -1 -28 -3
-32 -5 -5 -1 -11 -3 -15 -4 -11 -3 -161 -19 -203 -22 -70 -5 -168 -22 -189
-33 -12 -7 -32 -11 -44 -10 -20 2 -54 -1 -172 -17 -22 -2 -86 -7 -143 -9 -96
-5 -105 -3 -140 20 -20 13 -58 29 -85 36 -26 6 -50 15 -53 20 -3 5 -20 9 -37
9 -68 0 -159 43 -225 107 -7 7 -17 13 -22 13 -5 0 -33 14 -62 31 -79 47 -202
109 -240 120 -108 32 -181 16 -222 -49 -14 -22 -30 -43 -36 -47 -5 -3 -22 -32
-36 -63 -14 -31 -30 -67 -36 -78 -6 -12 -10 -82 -10 -155 -1 -141 2 -150 73
-281 5 -10 9 -27 9 -37 0 -11 5 -23 10 -26 6 -3 10 -13 10 -22 0 -8 16 -49 36
-91 20 -41 38 -92 40 -111 3 -20 11 -45 19 -57 8 -12 17 -46 21 -75 4 -30 10
-60 14 -68 8 -14 -2 -26 -112 -142 -27 -27 -48 -52 -48 -56 0 -3 -19 -27 -43
-52 -89 -97 -151 -178 -232 -301 -27 -41 -55 -79 -62 -83 -7 -4 -13 -13 -13
-20 0 -7 -10 -28 -23 -47 -12 -19 -34 -60 -47 -90 -13 -30 -31 -64 -41 -75 -9
-11 -23 -32 -30 -46 -44 -83 -63 -116 -77 -131 -15 -18 -43 -68 -81 -145 -12
-23 -27 -46 -35 -50 -7 -4 -21 -24 -31 -43 -10 -18 -24 -40 -31 -48 -11 -10
-14 -48 -14 -155 1 -127 2 -140 15 -123 8 11 15 15 15 9 0 -6 -7 -16 -15 -23
-13 -11 -15 -232 -15 -1881 l0 -1869 3330 0 3330 0 0 82 c0 45 3 78 7 74 4 -3
7 -39 8 -79 l0 -72 76 -3 77 -3 -3 103 c-1 57 -5 112 -10 123 -4 11 -16 40
-26 64 -11 24 -19 51 -19 61 0 9 -6 30 -14 46 -17 32 -26 100 -32 219 -6 131
-39 428 -49 444 -3 6 -7 36 -10 68 -6 92 -15 163 -31 236 -8 38 -14 81 -14 97
0 16 -9 75 -20 132 -12 57 -23 128 -26 159 -2 31 -13 99 -24 150 -11 51 -20
107 -20 124 0 17 -6 54 -14 81 -17 58 -27 118 -32 194 -1 30 -8 82 -13 115 -6
33 -15 89 -20 125 -6 36 -13 76 -16 90 -15 69 -22 110 -18 110 2 0 -2 7 -11
15 -12 13 -14 51 -12 243 2 125 9 259 16 297 7 39 12 78 12 88 -1 9 3 17 6 17
4 0 9 15 10 33 2 17 12 64 24 102 11 39 22 89 24 112 2 24 12 60 23 80 17 35
19 62 19 308 0 169 -4 275 -10 283 -6 6 -8 12 -5 12 3 0 -2 25 -10 56 -8 31
-16 71 -18 88 -2 17 -11 58 -20 91 -9 33 -18 68 -21 78 -2 9 -7 27 -10 40 -3
12 -7 32 -8 44 -2 12 -10 37 -18 55 -9 18 -24 53 -35 78 -10 25 -32 65 -49 90
-17 25 -34 55 -38 66 -3 12 -41 57 -84 101 -42 45 -113 120 -157 167 -54 58
-103 99 -152 128 -40 23 -73 44 -73 48 0 3 -12 7 -26 8 -14 1 -45 13 -69 28
-42 24 -59 52 -68 109 -1 11 -6 25 -9 31 -13 20 -38 99 -38 119 0 12 -4 25 -8
30 -15 17 -45 137 -62 246 -30 189 -40 242 -49 253 -5 6 -10 29 -10 51 -1 164
-20 202 -97 191 -37 -5 -49 0 -120 44 -43 28 -83 50 -89 51 -50 4 -77 3 -124
-1z m39 -165 c0 -7 -73 -55 -84 -55 -6 0 10 13 34 29 50 33 50 33 50 26z m81
-12 c13 -16 12 -17 -3 -4 -10 7 -18 15 -18 17 0 8 8 3 21 -13z m79 -48 c0 -8
-40 9 -51 21 -8 10 -3 10 20 -2 17 -9 31 -17 31 -19z m-4300 -9 c0 -2 -8 -10
-17 -17 -16 -13 -17 -12 -4 4 13 16 21 21 21 13z m4370 -91 c0 -18 5 -46 10
-62 9 -26 9 -27 -5 -9 -8 11 -15 39 -15 62 0 31 -7 52 -26 76 l-26 33 31 -33
c22 -23 31 -42 31 -67z m-4275 59 c28 -20 15 -17 -31 6 -22 12 -28 18 -14 14
14 -4 34 -13 45 -20z m3915 13 c0 -2 -12 -14 -27 -28 l-28 -24 24 28 c23 25
31 32 31 24z m-4067 -48 c-8 -16 -17 -28 -20 -25 -6 5 23 56 31 56 3 0 -2 -14
-11 -31z m257 -19 c0 -5 -13 -2 -30 6 -16 9 -30 17 -30 19 0 2 14 -1 30 -6 17
-6 30 -15 30 -19z m70 -46 c0 -2 -13 2 -30 11 -16 9 -30 18 -30 21 0 2 14 -2
30 -11 17 -9 30 -18 30 -21z m3640 -3 c-5 -11 -15 -23 -21 -27 -6 -3 -3 5 6
20 20 30 30 35 15 7z m-4010 -63 l-5 -63 -3 49 c-3 43 2 76 10 76 2 0 1 -28
-2 -62z m422 37 c16 -14 26 -25 23 -25 -4 0 -20 11 -37 25 -16 14 -26 25 -23
25 4 0 20 -11 37 -25z m3534 -47 c-9 -12 -16 -19 -16 -15 0 11 24 47 28 42 2
-2 -3 -14 -12 -27z m-3401 -46 c-4 -5 -95 57 -95 64 0 2 22 -10 49 -28 27 -18
48 -35 46 -36z m1475 13 c-7 -8 -18 -15 -24 -15 -6 0 -2 7 8 15 25 19 32 19
16 0z m577 9 c-3 -3 -12 -4 -19 -1 -8 3 -5 6 6 6 11 1 17 -2 13 -5z m1323 -3
c0 -12 -90 -111 -100 -111 -5 0 14 23 41 51 27 28 49 55 49 60 0 5 2 9 5 9 3
0 5 -4 5 -9z m585 -1 c3 -5 1 -10 -4 -10 -6 0 -11 5 -11 10 0 6 2 10 4 10 3 0
8 -4 11 -10z m-1817 -7 c-16 -2 -40 -2 -55 0 -16 2 -3 4 27 4 30 0 43 -2 28
-4z m-2101 -19 c-3 -3 -12 -4 -19 -1 -8 3 -5 6 6 6 11 1 17 -2 13 -5z m1343
-3 c-17 -10 -135 -23 -126 -14 3 3 31 9 63 13 81 10 80 10 63 1z m971 -9 c-13
-2 -27 0 -32 5 -6 6 3 7 23 4 28 -4 29 -6 9 -9z m1606 -29 c-3 -10 -5 -2 -5
17 0 19 2 27 5 18 2 -10 2 -26 0 -35z m-1541 19 c-10 -2 -22 0 -28 6 -6 6 0 7
19 4 21 -5 23 -7 9 -10z m-1256 -12 c-8 -5 -44 -9 -80 -8 l-65 2 70 6 c39 4
75 7 80 8 6 1 3 -3 -5 -8z m1347 4 c-3 -3 -12 -4 -19 -1 -8 3 -5 6 6 6 11 1
17 -2 13 -5z m-3070 -26 c-3 -8 -6 -5 -6 6 -1 11 2 17 5 13 3 -3 4 -12 1 -19z
m768 12 c13 -6 15 -9 5 -9 -8 0 -22 4 -30 9 -18 12 -2 12 25 0z m2390 -18 c-3
-3 -11 0 -18 7 -9 10 -8 11 6 5 10 -3 15 -9 12 -12z m-2325 -2 c8 -5 11 -10 5
-10 -5 0 -17 5 -25 10 -8 5 -10 10 -5 10 6 0 17 -5 25 -10z m2445 -20 c7 -6
26 -15 42 -20 20 -6 23 -8 8 -9 -11 -1 -33 8 -50 19 -16 11 -40 20 -52 20 -12
0 -24 4 -27 9 -8 12 61 -4 79 -19z m-1830 10 c-3 -5 -16 -10 -28 -9 -20 1 -20
2 3 9 14 4 26 8 28 9 2 1 0 -3 -3 -9z m3082 -37 c-3 -10 -5 -2 -5 17 0 19 2
27 5 18 2 -10 2 -26 0 -35z m-4503 11 c7 -19 2 -18 -19 6 -16 17 -16 20 -3 15
9 -4 19 -13 22 -21z m1291 16 c-3 -5 -14 -10 -23 -9 -14 0 -13 2 3 9 27 11 27
11 20 0z m2485 -10 c-8 -5 -22 -9 -30 -9 -10 0 -8 3 5 9 27 12 43 12 25 0z
m-2915 -10 c3 -5 1 -10 -4 -10 -6 0 -11 5 -11 10 0 6 2 10 4 10 3 0 8 -4 11
-10z m363 3 c-16 -2 -40 -2 -55 0 -16 2 -3 4 27 4 30 0 43 -2 28 -4z m-100
-10 c-10 -2 -26 -2 -35 0 -10 3 -2 5 17 5 19 0 27 -2 18 -5z m2595 0 c-7 -2
-19 -2 -25 0 -7 3 -2 5 12 5 14 0 19 -2 13 -5z m794 -45 c-3 -8 -6 -5 -6 6 -1
11 2 17 5 13 3 -3 4 -12 1 -19z m10 -40 c-3 -8 -6 -5 -6 6 -1 11 2 17 5 13 3
-3 4 -12 1 -19z m-4468 -57 c0 -14 -1 -14 -6 -1 -3 8 -10 24 -15 35 -9 20 -9
20 6 1 9 -11 16 -27 15 -35z m4484 9 c3 -11 1 -20 -4 -20 -5 0 -9 9 -9 20 0
11 2 20 4 20 2 0 6 -9 9 -20z m-4461 -75 c9 -20 9 -20 -6 -1 -9 11 -16 27 -15
35 0 14 1 14 6 1 3 -8 10 -24 15 -35z m4465 23 c-3 -8 -6 -5 -6 6 -1 11 2 17
5 13 3 -3 4 -12 1 -19z m37 -94 c3 -8 2 -12 -4 -9 -6 3 -10 10 -10 16 0 14 7
11 14 -7z m-4466 -19 c-3 -3 -9 2 -12 12 -6 14 -5 15 5 6 7 -7 10 -15 7 -18z
m4469 -27 c-3 -8 -6 -5 -6 6 -1 11 2 17 5 13 3 -3 4 -12 1 -19z m28 -65 c8
-20 13 -38 10 -41 -2 -3 -7 1 -9 9 -3 8 -10 26 -15 42 -15 40 -4 33 14 -10z
m-4451 -28 c5 -22 4 -26 -4 -15 -5 8 -10 24 -10 34 0 26 6 18 14 -19z m4479
-65 c3 -11 1 -18 -4 -14 -5 3 -9 12 -9 20 0 20 7 17 13 -6z m-4433 -99 c0 -31
-7 -24 -14 12 -2 15 -7 37 -10 50 -4 14 -1 11 9 -8 8 -16 14 -41 15 -54z
m4509 -38 c15 -12 14 -13 -1 -7 -17 6 -58 63 -58 80 0 5 10 -7 21 -26 12 -19
29 -40 38 -47z m-4502 -40 c-3 -10 -5 -2 -5 17 0 19 2 27 5 18 2 -10 2 -26 0
-35z m4549 12 c9 -8 11 -15 6 -15 -5 0 -15 7 -22 15 -7 8 -9 15 -6 15 4 0 14
-7 22 -15z m49 -33 c-3 -3 -11 0 -18 7 -9 10 -8 11 6 5 10 -3 15 -9 12 -12z
m40 -20 c-3 -3 -11 0 -18 7 -9 10 -8 11 6 5 10 -3 15 -9 12 -12z m45 -12 c0
-5 6 -10 14 -10 8 0 17 -4 20 -9 9 -14 -32 -1 -45 15 -8 10 -8 14 0 14 6 0 11
-4 11 -10z m-4700 -55 c-12 -13 -30 -25 -41 -28 -28 -7 -23 2 7 13 15 6 31 23
37 41 8 22 13 26 15 14 2 -9 -6 -27 -18 -40z m4825 -35 c10 -11 14 -20 9 -20
-5 0 -15 9 -22 20 -7 11 -11 20 -9 20 2 0 12 -9 22 -20z m-4902 -30 c-6 -22
-58 -70 -76 -70 -7 0 3 9 21 20 18 11 37 31 42 45 11 30 20 33 13 5z m4968
-37 c18 -21 23 -29 10 -18 -40 32 -62 55 -53 55 4 0 24 -17 43 -37z m-5073
-77 c-13 -19 -24 -33 -26 -31 -5 4 37 65 44 65 2 0 -6 -15 -18 -34z m5140 4
c17 -27 10 -25 -19 6 -13 14 -17 23 -9 19 9 -3 21 -14 28 -25z m-5178 -43 c0
-2 -15 -16 -32 -33 l-33 -29 29 33 c28 30 36 37 36 29z m5274 -56 c-2 -3 -12
3 -22 13 -16 17 -16 18 5 5 12 -7 20 -15 17 -18z m32 -48 c10 -21 27 -49 38
-63 l21 -25 -27 24 c-16 14 -28 30 -28 37 0 6 -7 17 -15 24 -8 7 -15 19 -15
26 0 23 8 16 26 -23z m-5406 -10 c-1 -5 -12 -21 -26 -38 -26 -30 -23 -21 6 23
16 23 20 27 20 15z m5488 -138 c-3 -3 -9 2 -12 12 -6 14 -5 15 5 6 7 -7 10
-15 7 -18z m-5587 -2 c-14 -24 -55 -72 -45 -53 10 20 47 70 51 70 2 0 -1 -8
-6 -17z m5619 -87 c0 -26 -6 -18 -14 19 -5 22 -4 26 4 15 5 -8 10 -24 10 -34z
m-5682 -15 c-7 -11 -19 -23 -26 -26 -7 -3 -3 8 10 24 26 32 36 34 16 2z m-38
-48 c0 -5 -10 -19 -21 -33 l-21 -25 18 33 c18 32 24 38 24 25z m5737 -15 c-3
-8 -6 -5 -6 6 -1 11 2 17 5 13 3 -3 4 -12 1 -19z m38 -153 c4 -27 3 -26 -6 5
-6 19 -12 49 -14 65 -4 27 -3 26 6 -5 6 -19 12 -48 14 -65z m-5835 55 c-6 -11
-13 -20 -16 -20 -2 0 0 9 6 20 6 11 13 20 16 20 2 0 0 -9 -6 -20z m-52 -99
c-7 -12 -16 -21 -21 -21 -4 0 0 11 10 24 22 29 30 27 11 -3z m5933 -366 c0
-307 -4 -306 -12 5 -3 146 -9 279 -12 295 -4 17 0 5 9 -25 11 -41 15 -112 15
-275z m-5991 275 c-6 -11 -13 -20 -16 -20 -2 0 0 9 6 20 6 11 13 20 16 20 2 0
0 -9 -6 -20z m-55 -88 l-28 -27 24 31 c13 17 26 30 28 27 3 -2 -8 -16 -24 -31z
m-46 -86 c-22 -20 -22 -20 -6 0 9 11 17 27 18 35 0 11 2 11 6 0 3 -7 -5 -23
-18 -35z m-108 -169 l-24 -22 19 27 c10 14 21 24 23 22 3 -3 -6 -15 -18 -27z
m-66 -85 l-28 -27 24 31 c13 17 26 30 28 27 3 -2 -8 -16 -24 -31z m-45 -71
c-29 -42 -36 -39 -8 3 13 19 24 33 26 31 3 -2 -6 -18 -18 -34z m6293 -56 c-3
-9 -8 -14 -10 -11 -3 3 -2 9 2 15 9 16 15 13 8 -4z m-22 -76 c-5 -26 -9 -34
-10 -19 -1 27 9 73 15 67 2 -2 0 -23 -5 -48z m46 -1751 c-3 -8 -6 -5 -6 6 -1
11 2 17 5 13 3 -3 4 -12 1 -19z m10 -40 c-3 -8 -6 -5 -6 6 -1 11 2 17 5 13 3
-3 4 -12 1 -19z m10 -40 c-3 -8 -6 -5 -6 6 -1 11 2 17 5 13 3 -3 4 -12 1 -19z
m10 -50 c-3 -8 -6 -5 -6 6 -1 11 2 17 5 13 3 -3 4 -12 1 -19z m15 -108 c3 -42
2 -64 -2 -50 -8 25 -13 137 -6 129 2 -2 6 -38 8 -79z m15 -102 c-3 -8 -6 -5
-6 6 -1 11 2 17 5 13 3 -3 4 -12 1 -19z m10 -70 c-3 -7 -5 -2 -5 12 0 14 2 19
5 13 2 -7 2 -19 0 -25z m16 -93 c3 -41 2 -60 -3 -45 -8 25 -13 127 -6 119 2
-2 6 -35 9 -74z m24 -167 c-3 -7 -5 -2 -5 12 0 14 2 19 5 13 2 -7 2 -19 0 -25z
m20 -165 c-2 -16 -4 -3 -4 27 0 30 2 43 4 28 2 -16 2 -40 0 -55z m20 -105 c-3
-8 -6 -5 -6 6 -1 11 2 17 5 13 3 -3 4 -12 1 -19z m23 -163 c1 -5 1 -28 0 -50
-3 -33 -4 -29 -10 25 -4 36 -8 90 -7 120 0 53 0 53 7 -15 4 -38 8 -74 10 -80z
m19 -195 c-1 -53 -6 -44 -12 24 -3 30 -1 43 4 35 5 -8 8 -34 8 -59z m-2 -102
c-2 -13 -4 -5 -4 17 -1 22 1 32 4 23 2 -10 2 -28 0 -40z m15 -78 c2 -22 0 -40
-4 -40 -5 0 -8 18 -8 40 0 22 2 40 4 40 2 0 6 -18 8 -40z m5 -72 c-3 -8 -6 -5
-6 6 -1 11 2 17 5 13 3 -3 4 -12 1 -19z m10 -40 c-3 -8 -6 -5 -6 6 -1 11 2 17
5 13 3 -3 4 -12 1 -19z m10 -50 c-3 -7 -5 -2 -5 12 0 14 2 19 5 13 2 -7 2 -19
0 -25z m40 -80 c-3 -8 -6 -5 -6 6 -1 11 2 17 5 13 3 -3 4 -12 1 -19z"/>
</g>
</svg>
